PathFileType	4	(X/Y/Z)	../Python\walking\Walking19\task.trc
DataRate	CameraRate	NumFrames	NumMarkers	Units	OrigDataRate	OrigDataStartFrame	OrigNumFrames
200.000000	200.000000	4	30	mm	200.000000	428	571
Frame#	Time	RBAK			CLAV			STRN			RASI			LASI			PE01			RTH1			RTH2			RTH3			RTB2			RTB3			RD5M			RTOE			LTH3			LTB2			LTB3			LHEE			LTOE			LD5M			RHEE			LTH1			LTH2			C7			RTB1			LPSI			PE03			PE02			RPSI			T10			LTB1			
		X1	Y1	Z1	X2	Y2	Z2	X3	Y3	Z3	X4	Y4	Z4	X5	Y5	Z5	X6	Y6	Z6	X7	Y7	Z7	X8	Y8	Z8	X9	Y9	Z9	X10	Y10	Z10	X11	Y11	Z11	X12	Y12	Z12	X13	Y13	Z13	X14	Y14	Z14	X15	Y15	Z15	X16	Y16	Z16	X17	Y17	Z17	X18	Y18	Z18	X19	Y19	Z19	X20	Y20	Z20	X21	Y21	Z21	X22	Y22	Z22	X23	Y23	Z23	X24	Y24	Z24	X25	Y25	Z25	X26	Y26	Z26	X27	Y27	Z27	X28	Y28	Z28	X29	Y29	Z29	X30	Y30	Z30	

429	2.14	1094.513549804688	1223.056396484375	260.3478088378907	1274.839111328125	1235.815185546875	169.3702850341797	1334.954711914063	1048.457885742188	171.3121185302735	1293.929077148438	851.1322631835942	282.0236816406251	1304.4677734375	849.5026245117192	55.13435363769534	1107.029663085938	925.1493530273442	181.7434082031251	1304.627563476563	560.2747192382815	312.7235717773439	1349.811157226563	497.000183105469	295.2710876464845	1354.871826171875	556.3112792968752	313.3725585937501	1435.497802734375	253.7063598632814	290.0204467773439	1478.77197265625	232.0486755371095	276.8101806640626	1624.859741210938	69.00090789794925	280.060516357422	1648.598266601563	96.88851928710943	234.9879760742189	1216.00439453125	565.7305297851565	37.43027114868165	1003.781555175782	218.9948120117189	67.72355651855472	1051.020263671875	234.5406494140626	70.95866394042972	920.4683227539067	52.94748306274417	129.2633361816407	1111.768188476563	30.37752342224123	134.6274414062501	1068.230224609375	16.79135322570801	82.79942321777347	1483.765747070313	22.65250205993653	208.5263519287111	1178.431518554688	596.4750976562502	24.59387969970705	1137.909790039063	551.0628051757815	38.53078842163087	1147.681518554688	1327.268920898438	165.1053161621094	1460.590454101563	309.3292236328126	282.9851379394532	1099.378784179688	893.623413085938	135.884262084961	1086.212524414063	868.3806152343755	151.8567504882813	1087.432006835938	865.6027221679692	202.467742919922	1097.229858398438	886.414916992188	221.3443908691407	1121.966918945313	1029.40380859375	163.3238983154297	1033.080322265625	291.4471740722657	54.00818634033206	
430	2.145	1101.144775390625	1221.674072265625	260.6705627441407	1281.568237304688	1234.455078125	169.7858581542969	1341.69189453125	1047.101318359375	171.5625152587891	1300.820922851563	850.0610961914067	282.2417907714845	1311.064331054688	848.2240600585942	55.23942184448245	1113.912841796875	923.9414672851567	182.3087310791016	1311.076171875	558.9885864257815	312.7083435058595	1356.405883789063	495.8884887695315	295.0806579589845	1361.293212890625	555.102966308594	313.6901855468751	1443.85400390625	253.2491607666017	290.0364685058595	1487.171508789063	231.7870178222657	276.7059631347657	1633.955322265626	69.04585266113284	279.8142089843751	1657.611572265626	96.91762542724615	234.6731567382814	1221.042846679688	564.8027954101565	37.27005004882814	1005.932189941407	219.7789459228517	67.71297454833987	1053.367797851563	234.8204193115236	70.92697906494143	920.8110961914067	54.52662658691409	129.0396423339844	1111.806396484375	30.38516235351564	134.6014862060547	1068.225463867188	16.83665657043458	82.78049468994143	1492.605346679688	22.5416374206543	208.8156585693361	1183.612548828125	595.7542724609377	24.71236801147462	1142.851440429688	550.567077636719	38.81747817993165	1154.326904296875	1326.049438476563	165.5764312744141	1468.763549804688	309.1083984375001	282.8507690429689	1106.007934570313	892.425659179688	136.5077819824219	1092.851318359375	867.219116210938	152.5753936767579	1094.1435546875	864.5148315429692	203.2129974365236	1104.001586914063	885.2119750976567	221.8925781250001	1128.636474609375	1028.160400390625	163.6282653808594	1036.015869140625	291.9257812500001	54.02038192749026	
431	2.15	1107.816284179688	1220.355834960938	261.0105285644532	1288.330932617188	1233.171020507813	170.2151184082032	1348.478393554688	1045.833984375	171.8365631103516	1307.746337890625	849.092895507813	282.4887695312501	1317.734497070313	846.9667358398442	55.38290023803714	1120.83056640625	922.8296508789067	182.8106384277344	1317.805297851563	557.9226684570315	312.685028076172	1363.322509765625	495.0183410644534	294.8853149414064	1367.995483398438	554.173522949219	313.8780212402345	1451.938110351563	252.8379821777345	290.0355834960939	1495.22265625	231.4649810791017	276.5506591796876	1642.125366210938	68.55645751953128	279.4430541992189	1665.783081054688	96.35472106933599	234.2203674316407	1226.193725585938	563.8786621093752	37.1537208557129	1008.186157226563	220.6084594726564	67.67315673828128	1055.804077148438	235.1424713134767	70.89424896240237	921.1889648437505	56.21752548217776	128.7499694824219	1111.857421875	30.39352989196779	134.5734863281251	1068.245239257813	16.87564277648926	82.75705718994143	1500.405639648438	22.42916679382325	209.0579071044923	1188.899169921875	595.0406494140627	24.86943817138673	1147.904907226563	550.0745849609377	39.12171936035158	1161.0009765625	1324.889770507813	166.0571594238282	1476.806640625	308.8677978515626	282.6954650878907	1112.706176757813	891.3020629882817	137.0824432373047	1099.55615234375	866.1311645507817	153.2576141357422	1100.893188476563	863.5285034179692	203.9209442138673	1110.8173828125	884.1191406250005	222.4051818847657	1135.360717773438	1026.9814453125	163.915512084961	1039.076538085938	292.4364318847657	54.01612854003909	
432	2.155	1114.527709960938	1219.1064453125	261.3663635253907	1295.126342773438	1231.969970703125	170.6580352783204	1355.315185546875	1044.66259765625	172.1348114013672	1314.704956054688	848.2341918945317	282.7671508789064	1324.479125976563	845.733276367188	55.56842803955081	1127.780639648438	921.8209838867192	183.2454681396485	1324.839599609375	557.095397949219	312.6690979003907	1370.575805664063	494.3993835449221	294.7018432617189	1375.002319335938	553.5358886718752	313.9415893554689	1459.755981445313	252.4785156250001	290.0180664062501	1502.93505859375	231.0897521972657	276.3480834960939	1649.388183593751	67.52738952636722	278.9464416503907	1673.131591796876	95.19901275634768	233.627655029297	1231.461181640625	562.9586181640627	37.09304428100587	1010.549011230469	221.4861297607423	67.60575866699222	1058.333862304688	235.5085601806642	70.86566925048831	921.6047973632817	58.02680969238284	128.3976287841797	1111.92431640625	30.40242576599123	134.5423736572266	1068.288452148438	16.90844154357911	82.72974395751956	1507.189453125	22.32843589782716	209.2571563720704	1194.295532226563	594.3338012695315	25.06831169128419	1153.075927734375	549.5830078125002	39.44312286376955	1167.703247070313	1323.795043945313	166.5468750000001	1484.720703125	308.6109619140626	282.5215759277345	1119.475341796875	890.2581176757817	137.6048431396485	1106.328002929688	865.1220092773442	153.900375366211	1107.682495117188	862.6494750976567	204.5882110595704	1117.6767578125	883.1433715820317	222.8794555664064	1142.140014648438	1025.872436523438	164.1839904785157	1042.268920898438	292.9797668457032	53.99846649169925	
